# Blender 4.0.1
# www.blender.org
mtllib toast.mtl
o Cube
v 1.000000 0.200000 1.000000
v 1.000000 -0.200000 1.000000
v -1.000000 0.200000 1.000000
v -1.000000 -0.200000 1.000000
v 1.000000 0.200000 -0.306057
v 0.306057 0.200000 -1.000000
v 0.907029 0.200000 -0.653029
v 0.653029 0.200000 -0.907029
v 0.306057 -0.200000 -1.000000
v 1.000000 -0.200000 -0.306057
v 0.653029 -0.200000 -0.907029
v 0.907029 -0.200000 -0.653029
v -0.351691 0.200000 -1.000000
v -1.000000 0.200000 -0.351691
v -0.675845 0.200000 -0.913143
v -0.913143 0.200000 -0.675845
v -1.000000 -0.200000 -0.351691
v -0.351691 -0.200000 -1.000000
v -0.913143 -0.200000 -0.675845
v -0.675845 -0.200000 -0.913143
vn -0.0000 -0.0000 1.0000
vn -0.0000 1.0000 -0.0000
vn -0.0000 -1.0000 -0.0000
vn 1.0000 -0.0000 -0.0000
vn 0.9659 -0.0000 -0.2588
vn 0.7071 -0.0000 -0.7071
vn 0.2588 -0.0000 -0.9659
vn -1.0000 -0.0000 -0.0000
vn -0.2588 -0.0000 -0.9659
vn -0.7071 -0.0000 -0.7071
vn -0.9659 -0.0000 -0.2588
vn -0.0000 -0.0000 -1.0000
vt 0.375000 0.750000
vt 0.625000 0.750000
vt 0.625000 1.000000
vt 0.375000 1.000000
vt 0.625000 0.586743
vt 0.636621 0.543371
vt 0.668371 0.511621
vt 0.711743 0.500000
vt 0.793961 0.500000
vt 0.834481 0.510857
vt 0.864143 0.540519
vt 0.875000 0.581039
vt 0.875000 0.750000
vt 0.125000 0.581039
vt 0.135857 0.540519
vt 0.165519 0.510857
vt 0.206039 0.500000
vt 0.288257 0.500000
vt 0.331629 0.511621
vt 0.363379 0.543371
vt 0.375000 0.586743
vt 0.125000 0.750000
vt 0.375000 0.586743
vt 0.625000 0.586743
vt 0.375000 0.543371
vt 0.625000 0.543371
vt 0.375000 0.456629
vt 0.625000 0.456629
vt 0.375000 0.413257
vt 0.625000 0.413257
vt 0.375000 0.000000
vt 0.625000 0.000000
vt 0.625000 0.168961
vt 0.375000 0.168961
vt 0.625000 0.331039
vt 0.375000 0.331039
vt 0.375000 0.290519
vt 0.625000 0.290519
vt 0.375000 0.209481
vt 0.625000 0.209481
s 0
usemtl Material
f 2/1/1 1/2/1 3/3/1 4/4/1
f 5/5/2 7/6/2 8/7/2 6/8/2 13/9/2 15/10/2 16/11/2 14/12/2 3/13/2 1/2/2
f 17/14/3 19/15/3 20/16/3 18/17/3 9/18/3 11/19/3 12/20/3 10/21/3 2/1/3 4/22/3
f 10/23/4 5/24/4 1/2/4 2/1/4
f 5/24/5 10/23/5 12/25/5 7/26/5
f 7/26/6 12/25/6 11/27/6 8/28/6
f 8/28/7 11/27/7 9/29/7 6/30/7
f 4/31/8 3/32/8 14/33/8 17/34/8
f 13/35/9 18/36/9 20/37/9 15/38/9
f 15/38/10 20/37/10 19/39/10 16/40/10
f 16/40/11 19/39/11 17/34/11 14/33/11
f 18/36/12 13/35/12 6/30/12 9/29/12
